<svg width="340" height="90" viewBox="0 0 340 90" fill="none" xmlns="http://www.w3.org/2000/svg">
<path d="M1.31 14.245C1.31 10.7617 2.85 7.88333 5.93 5.61C9.01 3.3 13.08 2.145 18.14 2.145C20.8167 2.145 23.2183 2.42 25.345 2.97C27.4717 3.48333 29.1583 4.14333 30.405 4.95C31.6517 5.75667 32.6967 6.69167 33.54 7.755C34.9333 9.58833 35.6117 11.6417 35.575 13.915C35.575 16.1517 34.695 18.15 32.935 19.91C31.175 21.67 29.0483 22.5867 26.555 22.66C29.6717 22.88 32.3667 23.9067 34.64 25.74C36.95 27.5733 38.105 29.8833 38.105 32.67C38.105 36.3367 36.6933 39.1967 33.87 41.25C31.0467 43.3033 27.6 44.33 23.53 44.33C19.4967 44.33 16.7467 43.7983 15.28 42.735L16.985 38.115C18.5983 38.9583 20.4683 39.38 22.595 39.38C24.7583 39.38 26.5183 38.7567 27.875 37.51C29.2317 36.2267 29.91 34.54 29.91 32.45C29.91 30.36 28.975 28.6 27.105 27.17C25.2717 25.74 22.76 25.025 19.57 25.025L20.065 20.955C22.265 20.955 24.1167 20.4417 25.62 19.415C27.16 18.3517 27.9483 16.775 27.985 14.685C28.0583 12.595 27.1233 10.835 25.18 9.405C23.09 7.90167 20.23 7.15 16.6 7.15C14.2167 7.15 11.8883 7.77333 9.615 9.02C7.34167 10.23 6.205 11.8617 6.205 13.915C6.205 14.905 6.60833 15.7483 7.415 16.445C8.22167 17.105 9.285 17.5083 10.605 17.655L10 21.725C7.21333 21.615 5.06833 20.8267 3.565 19.36C2.06167 17.8933 1.31 16.1883 1.31 14.245ZM17.04 33.44C16.4533 37.3633 15.3167 40.15 13.63 41.8C11.9433 43.4133 9.96333 44.22 7.69 44.22C5.41667 44.22 3.69333 43.6333 2.52 42.46C1.34667 41.2867 0.76 39.7833 0.76 37.95C0.76 33.6233 4.04167 29.9383 10.605 26.895C10.7883 25.355 11.045 23.2833 11.375 20.68C11.7417 18.04 12.0167 15.9133 12.2 14.3C12.42 12.6867 12.5667 11.6233 12.64 11.11C14.1433 10.1567 15.885 9.68 17.865 9.68C18.7817 9.68 19.6617 9.77167 20.505 9.955L17.04 33.44ZM4.83 37.235C4.83 38.555 5.45333 39.215 6.7 39.215C7.21333 39.215 7.745 38.885 8.295 38.225C8.88167 37.5283 9.285 36.4467 9.505 34.98L10 31.57C6.55333 33.5133 4.83 35.4017 4.83 37.235ZM76.8267 44.11C74.7734 44.11 73.2151 43.45 72.1517 42.13C71.1251 40.7733 70.4284 38.2617 70.0617 34.595C69.8417 32.6883 69.6217 30.2133 69.4017 27.17C66.8351 27.94 64.2501 28.7467 61.6467 29.59L59.7767 34.76C59.4101 35.75 59.1534 36.465 59.0067 36.905C58.8601 37.3083 58.5851 37.9317 58.1817 38.775C57.8151 39.6183 57.4851 40.2417 57.1917 40.645C56.9351 41.0117 56.5501 41.4883 56.0367 42.075C55.5601 42.6617 55.0651 43.0833 54.5517 43.34C53.2317 44 51.8201 44.33 50.3167 44.33C48.8134 44.33 47.5851 43.7983 46.6317 42.735C45.7151 41.635 45.2567 40.2967 45.2567 38.72C45.2567 38.28 45.2934 37.8217 45.3667 37.345C45.8434 33.825 49.4551 30.6167 56.2017 27.72C58.1084 22.8433 61.2801 14.63 65.7167 3.08C66.8901 2.42 68.3751 2.09 70.1717 2.09C70.5751 2.09 70.9601 2.09 71.3267 2.09C71.6934 2.09 72.1334 2.09 72.6467 2.09C73.1967 2.09 73.8751 2.2 74.6817 2.42C74.7184 4.14333 75.5617 14.8317 77.2117 34.485C77.3584 36.135 77.5601 37.2167 77.8167 37.73C78.0734 38.2067 78.5134 38.445 79.1367 38.445C80.1634 38.445 81.5201 37.7483 83.2067 36.355C84.9301 34.9617 86.4701 33.22 87.8267 31.13L89.3667 34.87L88.0467 36.63C84.1967 41.6167 80.4567 44.11 76.8267 44.11ZM68.0817 11.66L63.2967 25.025C65.8634 24.145 67.7701 23.5033 69.0167 23.1L68.0817 11.66ZM54.2767 32.505C50.8667 34.2283 49.1617 35.915 49.1617 37.565C49.1617 38.7383 49.6017 39.325 50.4817 39.325C51.1417 39.325 51.6734 38.8483 52.0767 37.895C52.5534 36.8683 53.2867 35.0717 54.2767 32.505ZM106.079 17.49C108.719 17.49 110.993 18.5717 112.899 20.735C114.806 22.8983 115.759 25.4283 115.759 28.325C115.759 28.7283 115.741 29.15 115.704 29.59C115.301 34.3933 113.688 38.06 110.864 40.59C108.041 43.0833 104.356 44.33 99.8094 44.33C97.9761 44.2567 96.3811 43.9267 95.0244 43.34C93.6677 42.7533 92.6594 42.02 91.9994 41.14C90.7527 39.5267 90.1294 38.0967 90.1294 36.85C90.1294 35.5667 90.3127 33.5133 90.6794 30.69C91.4494 24.8967 92.5494 15.5283 93.9794 2.585C94.7494 2.29166 95.7761 2.145 97.0594 2.145C99.9927 2.145 101.459 2.98833 101.459 4.675L99.5894 19.305C101.313 18.095 103.476 17.49 106.079 17.49ZM97.5544 36.465C97.5544 37.3083 97.8661 38.0233 98.4894 38.61C99.1494 39.16 100.048 39.435 101.184 39.435C103.054 39.435 104.594 38.5733 105.804 36.85C107.271 34.76 108.004 32.0467 108.004 28.71C108.004 27.0967 107.638 25.6667 106.904 24.42C106.171 23.1733 105.034 22.55 103.494 22.55C101.404 22.55 99.8094 23.7967 98.7094 26.29L98.2694 29.59C97.7927 33.2933 97.5544 35.585 97.5544 36.465ZM148.084 44.275C144.711 44.275 142.474 43.1017 141.374 40.755C139.467 43.1383 137.011 44.33 134.004 44.33C131.034 44.33 128.522 43.3217 126.469 41.305C124.452 39.2883 123.444 36.63 123.444 33.33C123.444 28.5267 124.856 24.695 127.679 21.835C130.502 18.975 134.077 17.545 138.404 17.545C138.514 17.545 138.624 17.545 138.734 17.545C140.567 17.545 142.254 17.8567 143.794 18.48C144.784 17.8567 145.976 17.545 147.369 17.545C148.799 17.545 149.826 17.7283 150.449 18.095C150.119 20.8083 149.771 23.485 149.404 26.125C149.037 28.7283 148.781 30.58 148.634 31.68C148.304 34.1733 148.139 35.97 148.139 37.07C148.139 38.5367 148.726 39.27 149.899 39.27C150.816 39.27 151.787 38.665 152.814 37.455C153.841 36.2083 154.739 34.265 155.509 31.625C156.572 32.5783 157.306 33.6417 157.709 34.815C156.646 38.2983 155.216 40.755 153.419 42.185C151.622 43.5783 149.844 44.275 148.084 44.275ZM139.229 21.835C136.882 21.835 135.012 22.7333 133.619 24.53C132.262 26.29 131.456 28.93 131.199 32.45C131.162 32.78 131.144 33.0917 131.144 33.385C131.144 35.1817 131.566 36.6117 132.409 37.675C133.289 38.7383 134.407 39.27 135.764 39.27C138.074 39.27 139.816 37.6383 140.989 34.375L142.309 22.495C141.246 22.055 140.219 21.835 139.229 21.835ZM203.171 8.47C202.584 8.21333 202.016 8.085 201.466 8.085C200.916 8.085 200.366 8.43333 199.816 9.13C199.266 9.82667 198.899 10.835 198.716 12.155L195.966 31.405C200.586 29.3883 203.537 27.885 204.821 26.895L206.911 30.525C205.811 31.3683 204.491 32.12 202.951 32.78C201.411 33.44 199.926 34.0633 198.496 34.65C197.066 35.2 196.002 35.6217 195.306 35.915L193.491 48.785C193.014 52.305 191.749 54.89 189.696 56.54C187.679 58.2267 185.442 59.07 182.986 59.07C180.566 59.07 178.641 58.1717 177.211 56.375C175.781 54.615 175.066 52.635 175.066 50.435C175.066 44.6783 179.282 39.5633 187.716 35.09L188.266 30.635C188.962 24.3283 189.677 18.8467 190.411 14.19C188.321 15.0333 186.121 15.455 183.811 15.455C181.537 15.455 179.686 14.8317 178.256 13.585C176.862 12.3383 176.166 10.7067 176.166 8.69C176.166 6.67333 176.881 5.09666 178.311 3.96C179.777 2.78666 181.611 2.2 183.811 2.2C185.167 2.2 187.111 2.62166 189.641 3.465C192.207 4.30833 194.187 4.73 195.581 4.73C198.074 4.73 200.164 4.08833 201.851 2.805C202.767 4.08833 203.226 5.61 203.226 7.37C203.226 7.73667 203.207 8.10333 203.171 8.47ZM181.611 10.175C181.611 10.725 181.904 11.2017 182.491 11.605C183.114 12.0083 184.031 12.21 185.241 12.21C186.487 12.21 188.101 11.66 190.081 10.56C188.651 10.23 187.184 9.86333 185.681 9.46C184.177 9.02 183.279 8.8 182.986 8.8C182.069 8.8 181.611 9.25833 181.611 10.175ZM187.111 39.875C181.867 43.0283 179.246 46.365 179.246 49.885C179.246 50.875 179.502 51.7183 180.016 52.415C180.602 53.2217 181.336 53.625 182.216 53.625C183.132 53.625 183.921 53.35 184.581 52.8C185.241 52.25 185.644 51.37 185.791 50.16L187.111 39.875ZM229.789 44.275C226.416 44.275 224.179 43.1017 223.079 40.755C221.172 43.1383 218.716 44.33 215.709 44.33C212.739 44.33 210.227 43.3217 208.174 41.305C206.157 39.2883 205.149 36.63 205.149 33.33C205.149 28.5267 206.561 24.695 209.384 21.835C212.207 18.975 215.782 17.545 220.109 17.545C220.219 17.545 220.329 17.545 220.439 17.545C222.272 17.545 223.959 17.8567 225.499 18.48C226.489 17.8567 227.681 17.545 229.074 17.545C230.504 17.545 231.531 17.7283 232.154 18.095C231.824 20.8083 231.476 23.485 231.109 26.125C230.742 28.7283 230.486 30.58 230.339 31.68C230.009 34.1733 229.844 35.97 229.844 37.07C229.844 38.5367 230.431 39.27 231.604 39.27C232.521 39.27 233.492 38.665 234.519 37.455C235.546 36.2083 236.444 34.265 237.214 31.625C238.277 32.5783 239.011 33.6417 239.414 34.815C238.351 38.2983 236.921 40.755 235.124 42.185C233.327 43.5783 231.549 44.275 229.789 44.275ZM220.934 21.835C218.587 21.835 216.717 22.7333 215.324 24.53C213.967 26.29 213.161 28.93 212.904 32.45C212.867 32.78 212.849 33.0917 212.849 33.385C212.849 35.1817 213.271 36.6117 214.114 37.675C214.994 38.7383 216.112 39.27 217.469 39.27C219.779 39.27 221.521 37.6383 222.694 34.375L224.014 22.495C222.951 22.055 221.924 21.835 220.934 21.835ZM256.621 37.84L257.941 25.575C257.941 24.585 257.684 23.76 257.171 23.1C256.658 22.44 255.796 22.11 254.586 22.11C253.413 22.11 252.404 22.6417 251.561 23.705C250.754 24.7317 250.241 26.0333 250.021 27.61C248.701 37.6567 248.004 43.12 247.931 44H240.506L243.531 18.095C245.071 17.6917 246.244 17.49 247.051 17.49C249.508 17.49 250.791 18.3883 250.901 20.185C252.698 18.425 254.843 17.545 257.336 17.545C259.866 17.545 261.846 18.1683 263.276 19.415C264.706 20.6617 265.421 22.2383 265.421 24.145C265.421 24.6583 265.311 25.63 265.091 27.06C264.248 32.6333 263.826 35.8783 263.826 36.795C263.826 38.4817 264.394 39.325 265.531 39.325C268.024 39.325 269.913 36.7217 271.196 31.515C272.443 32.835 273.194 33.88 273.451 34.65C271.508 41.1033 268.134 44.33 263.331 44.33C261.058 44.33 259.371 43.6333 258.271 42.24C257.171 40.8467 256.621 39.38 256.621 37.84ZM279.146 3.52C279.99 2.64 281.016 2.2 282.226 2.2C283.436 2.2 284.463 2.64 285.306 3.52C286.186 4.36333 286.626 5.39 286.626 6.6C286.626 7.81 286.186 8.83667 285.306 9.68C284.463 10.5233 283.436 10.945 282.226 10.945C281.016 10.945 279.99 10.5233 279.146 9.68C278.303 8.83667 277.881 7.81 277.881 6.6C277.881 5.39 278.303 4.36333 279.146 3.52ZM276.891 19.635C277.258 18.975 277.955 18.48 278.981 18.15C280.008 17.7833 281.016 17.6 282.006 17.6C283.033 17.6 283.931 17.7283 284.701 17.985C283.271 29.0217 282.556 34.595 282.556 34.705C282.373 35.4383 282.281 36.0617 282.281 36.575C282.281 37.0517 282.318 37.4733 282.391 37.84C282.538 38.7933 283.198 39.27 284.371 39.27C285.581 39.27 286.681 38.5 287.671 36.96C288.698 35.3833 289.468 33.605 289.981 31.625C290.238 31.7717 290.641 32.2117 291.191 32.945C291.741 33.6783 292.071 34.2283 292.181 34.595C291.448 37.5283 290.201 39.8933 288.441 41.69C286.681 43.4867 284.573 44.385 282.116 44.385C279.66 44.385 277.826 43.78 276.616 42.57C275.443 41.36 274.856 39.8017 274.856 37.895C274.856 37.4917 274.875 37.07 274.911 36.63L276.891 19.635ZM293.911 4.895C293.911 3.72167 294.333 2.695 295.176 1.815C296.056 0.934999 297.138 0.495 298.421 0.495C299.704 0.495 300.804 0.898332 301.721 1.705C302.674 2.51166 303.151 3.72167 303.151 5.335C303.151 6.91167 302.344 8.76333 300.731 10.89C299.118 12.98 297.541 14.6483 296.001 15.895C295.928 15.9317 295.781 15.95 295.561 15.95C295.341 15.95 294.901 15.84 294.241 15.62C293.581 15.4 293.178 15.2167 293.031 15.07C294.754 13.09 296.258 11.1833 297.541 9.35C296.514 9.16666 295.653 8.67166 294.956 7.865C294.259 7.02167 293.911 6.03167 293.911 4.895ZM335.382 27.17C338.279 29.2967 339.727 31.8083 339.727 34.705C339.727 37.6017 338.59 39.93 336.317 41.69C334.044 43.45 331.184 44.33 327.737 44.33C325.5 44.33 323.63 43.78 322.127 42.68C320.66 41.5433 319.927 40.15 319.927 38.5C319.927 36.85 320.477 35.5483 321.577 34.595C322.677 33.605 324.052 33 325.702 32.78C324.932 33.88 324.547 34.9433 324.547 35.97C324.547 36.96 324.895 37.7667 325.592 38.39C326.289 39.0133 327.169 39.325 328.232 39.325C329.295 39.325 330.175 38.94 330.872 38.17C331.569 37.3633 331.917 36.4467 331.917 35.42C331.917 33.7333 331.129 32.23 329.552 30.91C328.599 30.14 327.572 29.425 326.472 28.765C325.372 28.0683 324.785 27.7017 324.712 27.665C324.565 27.555 324.419 27.4633 324.272 27.39C323.612 28.16 322.659 29.2233 321.412 30.58C320.165 31.9 319.175 32.9633 318.442 33.77C316.389 36.0067 315.234 37.8767 314.977 39.38C314.904 39.6733 314.867 40.2417 314.867 41.085C314.867 41.8917 315.105 42.735 315.582 43.615C316.095 44.495 316.7 45.155 317.397 45.595C318.094 46.035 318.772 46.3833 319.432 46.64C320.129 46.9333 320.715 47.135 321.192 47.245C321.705 47.355 321.962 47.4283 321.962 47.465C321.962 47.7217 321.559 48.015 320.752 48.345C319.249 48.895 317.672 49.17 316.022 49.17C314.409 49.17 312.832 48.5833 311.292 47.41C309.202 45.7967 308.157 43.6517 308.157 40.975C308.157 39.325 308.579 37.6933 309.422 36.08C310.925 33.22 314.445 29.2967 319.982 24.31C318.625 22.9533 317.947 21.505 317.947 19.965C317.947 18.425 318.515 17.1233 319.652 16.06C320.825 14.9967 322.2 14.465 323.777 14.465C325.207 14.465 326.454 15.0333 327.517 16.17C328.214 16.94 328.562 17.9117 328.562 19.085C328.562 20.2583 328.177 21.5783 327.407 23.045C331.33 24.805 333.989 26.18 335.382 27.17ZM323.447 20.955C324.327 20.0383 324.767 19.3783 324.767 18.975C324.767 18.0583 324.364 17.5633 323.557 17.49C322.64 17.49 322.182 18.0033 322.182 19.03C322.182 19.6533 322.604 20.295 323.447 20.955Z" fill="#5A3100"/>
<path d="M46.425 70.8C46.425 70.5667 46.525 70.45 46.725 70.45H57.725C57.8917 70.45 57.975 70.5417 57.975 70.725V72C57.975 72.2 57.8667 72.3 57.65 72.3H49.15C48.9333 72.3 48.825 72.4 48.825 72.6V78.75C48.825 78.9333 48.9167 79.025 49.1 79.025H55.775C55.9583 79.025 56.05 79.1083 56.05 79.275V80.6C56.05 80.75 55.9583 80.825 55.775 80.825H49.1C48.9167 80.825 48.825 80.9167 48.825 81.1V88.675C48.825 88.8917 48.7083 89 48.475 89H46.775C46.6417 89 46.55 88.975 46.5 88.925C46.45 88.875 46.425 88.7833 46.425 88.65V70.8ZM71.4162 87.4C70.7995 88 70.1245 88.4583 69.3912 88.775C68.6745 89.0917 67.8662 89.25 66.9662 89.25C65.6662 89.25 64.6412 88.9167 63.8912 88.25C63.1579 87.5833 62.7912 86.7083 62.7912 85.625C62.7912 84.7417 63.0412 83.9833 63.5412 83.35C64.0412 82.7 64.7829 82.1917 65.7662 81.825C66.7495 81.4417 67.9579 81.2083 69.3912 81.125L71.3412 80.975C71.4412 80.9583 71.5329 80.925 71.6162 80.875C71.6995 80.825 71.7412 80.7333 71.7412 80.6V79.925C71.7412 79.025 71.4579 78.3167 70.8912 77.8C70.3412 77.2667 69.5912 77 68.6412 77C67.9079 77 67.2412 77.1667 66.6412 77.5C66.0579 77.8333 65.5329 78.3333 65.0662 79C64.9995 79.0833 64.9412 79.1417 64.8912 79.175C64.8579 79.1917 64.7912 79.1833 64.6912 79.15L63.3412 78.7C63.2912 78.6667 63.2495 78.625 63.2162 78.575C63.1995 78.525 63.2245 78.4333 63.2912 78.3C63.7912 77.4333 64.4912 76.75 65.3912 76.25C66.3079 75.75 67.4245 75.5 68.7412 75.5C69.8579 75.5 70.7829 75.675 71.5162 76.025C72.2662 76.3583 72.8245 76.85 73.1912 77.5C73.5745 78.1333 73.7662 78.8917 73.7662 79.775V88.625C73.7662 88.775 73.7412 88.875 73.6912 88.925C73.6412 88.975 73.5579 89 73.4412 89H72.1662C72.0495 89 71.9662 88.9667 71.9162 88.9C71.8662 88.8167 71.8329 88.7167 71.8162 88.6L71.7912 87.45C71.7412 87.2167 71.6162 87.2 71.4162 87.4ZM71.7412 82.65C71.7412 82.3667 71.6245 82.2333 71.3912 82.25L69.7412 82.4C68.9745 82.4333 68.2912 82.5333 67.6912 82.7C67.0912 82.85 66.5829 83.05 66.1662 83.3C65.7495 83.55 65.4329 83.85 65.2162 84.2C64.9995 84.5333 64.8912 84.925 64.8912 85.375C64.8912 86.1083 65.1412 86.6833 65.6412 87.1C66.1579 87.5 66.8495 87.7 67.7162 87.7C68.2495 87.7 68.7579 87.6083 69.2412 87.425C69.7412 87.225 70.1745 86.975 70.5412 86.675C70.9245 86.3583 71.2162 86.0333 71.4162 85.7C71.6329 85.3667 71.7412 85.0417 71.7412 84.725V82.65ZM90.4375 78.675C90.1042 78.175 89.6375 77.7667 89.0375 77.45C88.4375 77.1333 87.7208 76.975 86.8875 76.975C85.9875 76.975 85.2375 77.1667 84.6375 77.55C84.0542 77.9333 83.7625 78.45 83.7625 79.1C83.7625 79.45 83.8958 79.7833 84.1625 80.1C84.4292 80.4 84.9708 80.6833 85.7875 80.95L88.9625 81.9C90.1125 82.2167 90.9375 82.675 91.4375 83.275C91.9542 83.875 92.2125 84.5667 92.2125 85.35C92.2125 86.1333 91.9792 86.8167 91.5125 87.4C91.0458 87.9833 90.4042 88.4417 89.5875 88.775C88.7708 89.0917 87.8458 89.25 86.8125 89.25C85.4958 89.25 84.3458 88.9917 83.3625 88.475C82.3792 87.9417 81.6792 87.2833 81.2625 86.5C81.2125 86.4167 81.1875 86.3417 81.1875 86.275C81.1875 86.2083 81.2292 86.15 81.3125 86.1L82.2875 85.55C82.3708 85.5 82.4458 85.4833 82.5125 85.5C82.5792 85.5 82.6292 85.525 82.6625 85.575C82.9458 86.0083 83.2708 86.3833 83.6375 86.7C84.0208 87.0167 84.4708 87.2667 84.9875 87.45C85.5208 87.6333 86.1375 87.725 86.8375 87.725C87.4708 87.7083 88.0458 87.6167 88.5625 87.45C89.0792 87.2833 89.4875 87.0417 89.7875 86.725C90.0875 86.3917 90.2375 86.0083 90.2375 85.575C90.2375 85.125 90.0542 84.7417 89.6875 84.425C89.3208 84.0917 88.6875 83.8 87.7875 83.55L85.2125 82.825C83.9625 82.4917 83.0792 82.0417 82.5625 81.475C82.0625 80.9083 81.8042 80.2417 81.7875 79.475C81.7875 78.675 82.0042 77.9833 82.4375 77.4C82.8708 76.8 83.4708 76.3333 84.2375 76C85.0208 75.6667 85.9125 75.5 86.9125 75.5C88.0292 75.5 89.0208 75.7167 89.8875 76.15C90.7708 76.5667 91.4375 77.125 91.8875 77.825C91.9375 77.8917 91.9625 77.9583 91.9625 78.025C91.9625 78.075 91.9292 78.125 91.8625 78.175L90.8125 78.75C90.7458 78.7833 90.6792 78.8 90.6125 78.8C90.5625 78.7833 90.5042 78.7417 90.4375 78.675ZM103.463 77.325C103.33 77.325 103.263 77.3917 103.263 77.525V85.45C103.263 86.2333 103.396 86.7583 103.663 87.025C103.93 87.2917 104.33 87.425 104.863 87.425H106.588C106.671 87.425 106.738 87.45 106.788 87.5C106.838 87.5333 106.863 87.6 106.863 87.7L106.838 88.55C106.838 88.7167 106.738 88.825 106.538 88.875C106.371 88.9083 106.13 88.9333 105.813 88.95C105.513 88.9667 105.213 88.9833 104.913 89C104.63 89 104.388 89 104.188 89C103.138 89 102.371 88.7583 101.888 88.275C101.405 87.775 101.163 86.9917 101.163 85.925V77.575C101.163 77.4083 101.08 77.325 100.913 77.325H98.9131C98.7298 77.325 98.6381 77.2333 98.6381 77.05V76C98.6381 75.8333 98.7214 75.75 98.8881 75.75H101.013C101.13 75.75 101.188 75.6833 101.188 75.55L101.463 71.575C101.48 71.3583 101.571 71.25 101.738 71.25H102.988C103.188 71.25 103.288 71.3667 103.288 71.6V75.55C103.288 75.6833 103.355 75.75 103.488 75.75H106.638C106.821 75.75 106.913 75.825 106.913 75.975V77.05C106.913 77.2333 106.821 77.325 106.638 77.325H103.463ZM125.478 70.8C125.478 70.5667 125.578 70.45 125.778 70.45H136.778C136.944 70.45 137.028 70.5417 137.028 70.725V72C137.028 72.2 136.919 72.3 136.703 72.3H128.203C127.986 72.3 127.878 72.4 127.878 72.6V78.75C127.878 78.9333 127.969 79.025 128.153 79.025H134.828C135.011 79.025 135.103 79.1083 135.103 79.275V80.6C135.103 80.75 135.011 80.825 134.828 80.825H128.153C127.969 80.825 127.878 80.9167 127.878 81.1V88.675C127.878 88.8917 127.761 89 127.528 89H125.828C125.694 89 125.603 88.975 125.553 88.925C125.503 88.875 125.478 88.7833 125.478 88.65V70.8ZM148.589 89.25C147.339 89.25 146.231 88.9667 145.264 88.4C144.314 87.8167 143.573 87.0167 143.039 86C142.523 84.9667 142.264 83.7833 142.264 82.45C142.264 81.0667 142.531 79.8583 143.064 78.825C143.614 77.775 144.364 76.9583 145.314 76.375C146.264 75.7917 147.364 75.5 148.614 75.5C149.881 75.5 150.981 75.8 151.914 76.4C152.864 76.9833 153.598 77.8 154.114 78.85C154.648 79.8833 154.914 81.075 154.914 82.425C154.914 83.7583 154.648 84.9417 154.114 85.975C153.581 86.9917 152.839 87.7917 151.889 88.375C150.956 88.9583 149.856 89.25 148.589 89.25ZM148.639 87.675C149.506 87.675 150.248 87.4667 150.864 87.05C151.481 86.6167 151.948 86.0083 152.264 85.225C152.598 84.425 152.764 83.475 152.764 82.375C152.764 81.275 152.598 80.3333 152.264 79.55C151.931 78.75 151.456 78.1333 150.839 77.7C150.223 77.2667 149.481 77.05 148.614 77.05C147.764 77.05 147.023 77.2667 146.389 77.7C145.756 78.1333 145.264 78.75 144.914 79.55C144.581 80.3333 144.414 81.275 144.414 82.375C144.414 83.4583 144.581 84.4 144.914 85.2C145.264 86 145.756 86.6167 146.389 87.05C147.023 87.4667 147.773 87.675 148.639 87.675ZM168.555 89.25C167.305 89.25 166.197 88.9667 165.23 88.4C164.28 87.8167 163.538 87.0167 163.005 86C162.488 84.9667 162.23 83.7833 162.23 82.45C162.23 81.0667 162.497 79.8583 163.03 78.825C163.58 77.775 164.33 76.9583 165.28 76.375C166.23 75.7917 167.33 75.5 168.58 75.5C169.847 75.5 170.947 75.8 171.88 76.4C172.83 76.9833 173.563 77.8 174.08 78.85C174.613 79.8833 174.88 81.075 174.88 82.425C174.88 83.7583 174.613 84.9417 174.08 85.975C173.547 86.9917 172.805 87.7917 171.855 88.375C170.922 88.9583 169.822 89.25 168.555 89.25ZM168.605 87.675C169.472 87.675 170.213 87.4667 170.83 87.05C171.447 86.6167 171.913 86.0083 172.23 85.225C172.563 84.425 172.73 83.475 172.73 82.375C172.73 81.275 172.563 80.3333 172.23 79.55C171.897 78.75 171.422 78.1333 170.805 77.7C170.188 77.2667 169.447 77.05 168.58 77.05C167.73 77.05 166.988 77.2667 166.355 77.7C165.722 78.1333 165.23 78.75 164.88 79.55C164.547 80.3333 164.38 81.275 164.38 82.375C164.38 83.4583 164.547 84.4 164.88 85.2C165.23 86 165.722 86.6167 166.355 87.05C166.988 87.4667 167.738 87.675 168.605 87.675ZM192.396 89C192.279 89 192.188 88.975 192.121 88.925C192.071 88.8583 192.046 88.7667 192.046 88.65V87.6C192.046 87.4667 192.013 87.3917 191.946 87.375C191.896 87.3583 191.821 87.4 191.721 87.5C191.538 87.6667 191.271 87.8917 190.921 88.175C190.588 88.4583 190.163 88.7083 189.646 88.925C189.129 89.1417 188.513 89.25 187.796 89.25C186.746 89.25 185.804 89 184.971 88.5C184.138 88 183.471 87.2583 182.971 86.275C182.488 85.275 182.246 84.0417 182.246 82.575C182.246 81.1583 182.488 79.925 182.971 78.875C183.471 77.8083 184.163 76.9833 185.046 76.4C185.946 75.8 186.963 75.5 188.096 75.5C188.913 75.5 189.596 75.6333 190.146 75.9C190.696 76.1667 191.179 76.475 191.596 76.825C191.746 76.9417 191.846 76.9917 191.896 76.975C191.963 76.9417 191.996 76.8333 191.996 76.65V70.775C191.996 70.5583 192.088 70.45 192.271 70.45H193.796C193.979 70.45 194.071 70.5583 194.071 70.775V88.6C194.071 88.75 194.046 88.8583 193.996 88.925C193.946 88.975 193.838 89 193.671 89H192.396ZM191.971 78.675C191.454 78.1583 190.929 77.7583 190.396 77.475C189.863 77.1917 189.263 77.05 188.596 77.05C187.796 77.05 187.071 77.2583 186.421 77.675C185.788 78.075 185.288 78.6833 184.921 79.5C184.571 80.3167 184.396 81.3167 184.396 82.5C184.396 83.7167 184.579 84.7167 184.946 85.5C185.313 86.2667 185.804 86.8333 186.421 87.2C187.038 87.55 187.713 87.725 188.446 87.725C189.129 87.725 189.729 87.5667 190.246 87.25C190.779 86.9333 191.196 86.5417 191.496 86.075C191.813 85.6083 191.971 85.15 191.971 84.7V78.675ZM216.383 80.325C216.25 80.325 216.183 80.3917 216.183 80.525V88.625C216.183 88.875 216.042 89 215.758 89H214.133C214 89 213.908 88.975 213.858 88.925C213.808 88.8583 213.783 88.7667 213.783 88.65V70.8C213.783 70.5667 213.883 70.45 214.083 70.45H215.883C216.083 70.45 216.183 70.5583 216.183 70.775V78.125C216.183 78.325 216.275 78.425 216.458 78.425H224.658C224.825 78.425 224.908 78.325 224.908 78.125V70.75C224.908 70.55 225 70.45 225.183 70.45H227.008C227.208 70.45 227.308 70.5667 227.308 70.8V88.65C227.308 88.7667 227.283 88.8583 227.233 88.925C227.183 88.975 227.092 89 226.958 89H225.333C225.05 89 224.908 88.875 224.908 88.625V80.55C224.908 80.4 224.833 80.325 224.683 80.325H216.383ZM242.717 82.875C242.717 83.1083 242.576 83.225 242.292 83.225H236.617C236.501 83.225 236.417 83.2083 236.367 83.175C236.317 83.125 236.292 83.0417 236.292 82.925V81.825C236.292 81.6417 236.367 81.55 236.517 81.55L242.467 81.525C242.634 81.525 242.717 81.6083 242.717 81.775V82.875ZM259.564 87.1C259.747 87.1 259.839 87.1833 259.839 87.35V88.75C259.839 88.8 259.814 88.8583 259.764 88.925C259.73 88.975 259.664 89 259.564 89H250.789C250.605 89 250.514 88.9167 250.514 88.75V87.35C250.514 87.1833 250.605 87.1 250.789 87.1H253.939C254.072 87.1 254.139 87.0583 254.139 86.975V73.225C254.139 73.0583 254.064 72.9917 253.914 73.025L250.814 74.175C250.597 74.225 250.489 74.125 250.489 73.875V72.875C250.489 72.7583 250.505 72.6833 250.539 72.65C250.572 72.6 250.639 72.55 250.739 72.5L254.439 70.65C254.605 70.5667 254.739 70.5167 254.839 70.5C254.939 70.4667 255.055 70.45 255.189 70.45H256.264C256.447 70.45 256.539 70.55 256.539 70.75V86.925C256.539 87.0417 256.589 87.1 256.689 87.1H259.564ZM267.81 73.05C267.693 72.9333 267.693 72.8083 267.81 72.675C268.326 72.1083 268.885 71.6417 269.485 71.275C270.101 70.9083 270.751 70.6417 271.435 70.475C272.118 70.2917 272.835 70.2 273.585 70.2C274.885 70.2 275.993 70.4083 276.91 70.825C277.843 71.225 278.56 71.7833 279.06 72.5C279.576 73.2 279.835 74 279.835 74.9C279.835 75.8 279.551 76.6167 278.985 77.35C278.435 78.0667 277.66 78.6 276.66 78.95C276.476 79.0167 276.385 79.075 276.385 79.125C276.385 79.175 276.476 79.2333 276.66 79.3C277.343 79.4833 277.968 79.7917 278.535 80.225C279.118 80.6417 279.576 81.1583 279.91 81.775C280.243 82.3917 280.41 83.0917 280.41 83.875C280.41 84.9083 280.143 85.8333 279.61 86.65C279.076 87.4667 278.276 88.1083 277.21 88.575C276.16 89.025 274.843 89.25 273.26 89.25C272.426 89.25 271.635 89.1583 270.885 88.975C270.135 88.775 269.435 88.475 268.785 88.075C268.151 87.675 267.56 87.1833 267.01 86.6C266.943 86.5167 266.918 86.4417 266.935 86.375C266.951 86.3083 267.001 86.2417 267.085 86.175L268.16 85.325C268.276 85.2417 268.36 85.2083 268.41 85.225C268.46 85.2417 268.51 85.275 268.56 85.325C269.06 85.8417 269.56 86.25 270.06 86.55C270.56 86.85 271.085 87.075 271.635 87.225C272.185 87.3583 272.785 87.425 273.435 87.425C274.901 87.425 276.035 87.1 276.835 86.45C277.635 85.8 278.035 84.9667 278.035 83.95C278.035 83.15 277.81 82.475 277.36 81.925C276.91 81.375 276.326 80.9583 275.61 80.675C274.893 80.3917 274.135 80.25 273.335 80.25L271.11 80.225C270.91 80.225 270.81 80.1417 270.81 79.975V78.675C270.81 78.525 270.91 78.4417 271.11 78.425L272.91 78.4C273.776 78.4 274.551 78.25 275.235 77.95C275.935 77.65 276.485 77.25 276.885 76.75C277.285 76.2333 277.485 75.65 277.485 75C277.485 74.4333 277.318 73.925 276.985 73.475C276.651 73.025 276.193 72.6667 275.61 72.4C275.026 72.1333 274.36 72 273.61 72C272.743 72 271.943 72.1667 271.21 72.5C270.476 72.8333 269.785 73.3083 269.135 73.925C269.068 74.0083 269.001 74.05 268.935 74.05C268.868 74.05 268.785 74.0083 268.685 73.925L267.81 73.05Z" fill="#FE9E58"/>
</svg>
